<svg width="28" height="29" fill="none" xmlns="http://www.w3.org/2000/svg"><circle cx="14" cy="14" r="14" fill="url(#paint0_linear)"/><g filter="url(#filter0_d)"><path d="M10.914 16.813v3.093a1.547 1.547 0 001.547 1.547h.93a.515.515 0 00.483-.338l1.68-4.56a1.031 1.031 0 001.032-1.032V9.336a1.031 1.031 0 00-1.031-1.031H9.659a2.836 2.836 0 00-2.787 2.32l-.774 4.104a1.546 1.546 0 001.524 1.826h3.034a.258.258 0 01.258.258z" fill="#fff"/></g><g filter="url(#filter1_d)"><path d="M20.453 16.941h-2.062a.516.516 0 01-.516-.515V8.434a.516.516 0 01.516-.516h2.062a1.031 1.031 0 011.031 1.031v6.961a1.031 1.031 0 01-1.03 1.031z" fill="#fff"/></g><defs><filter id="filter0_d" x="2.073" y="7.305" width="18.513" height="21.148" filterUnits="userSpaceOnUse" color-interpolation-filters="sRGB"><feFlood flood-opacity="0" result="BackgroundImageFix"/><feColorMatrix in="SourceAlpha" values="0 0 0 0 0 0 0 0 0 0 0 0 0 0 0 0 0 0 127 0"/><feOffset dy="3"/><feGaussianBlur stdDeviation="2"/><feColorMatrix values="0 0 0 0 0.841667 0 0 0 0 0.350694 0 0 0 0 0.350694 0 0 0 1 0"/><feBlend in2="BackgroundImageFix" result="effect1_dropShadow"/><feBlend in="SourceGraphic" in2="effect1_dropShadow" result="shape"/></filter><filter id="filter1_d" x="13.875" y="6.918" width="11.609" height="17.023" filterUnits="userSpaceOnUse" color-interpolation-filters="sRGB"><feFlood flood-opacity="0" result="BackgroundImageFix"/><feColorMatrix in="SourceAlpha" values="0 0 0 0 0 0 0 0 0 0 0 0 0 0 0 0 0 0 127 0"/><feOffset dy="3"/><feGaussianBlur stdDeviation="2"/><feColorMatrix values="0 0 0 0 0.841667 0 0 0 0 0.350694 0 0 0 0 0.350694 0 0 0 1 0"/><feBlend in2="BackgroundImageFix" result="effect1_dropShadow"/><feBlend in="SourceGraphic" in2="effect1_dropShadow" result="shape"/></filter><linearGradient id="paint0_linear" x1="0" y1="0" x2="33.79" y2="13.4" gradientUnits="userSpaceOnUse"><stop stop-color="#FF6F6F"/><stop offset="1" stop-color="#F36666"/></linearGradient></defs></svg>