<svg width="28" height="28" fill="none" xmlns="http://www.w3.org/2000/svg"><circle cx="14" cy="14" r="14" fill="url(#paint0_linear)"/><g filter="url(#filter0_d)"><path d="M17.086 11.188V8.094a1.547 1.547 0 00-1.547-1.547h-.93a.515.515 0 00-.483.338l-1.68 4.56a1.031 1.031 0 00-1.032 1.032v6.187a1.031 1.031 0 001.031 1.031h5.896a2.836 2.836 0 002.787-2.32l.774-4.104a1.546 1.546 0 00-1.524-1.826h-3.034a.258.258 0 01-.258-.258z" fill="#fff"/></g><g filter="url(#filter1_d)"><path d="M7.547 11.059h2.062a.516.516 0 01.516.515v7.992a.515.515 0 01-.516.516H7.547a1.031 1.031 0 01-1.031-1.031V12.09a1.031 1.031 0 011.03-1.031z" fill="#fff"/></g><defs><filter id="filter0_d" x="7.414" y="5.547" width="18.513" height="21.148" filterUnits="userSpaceOnUse" color-interpolation-filters="sRGB"><feFlood flood-opacity="0" result="BackgroundImageFix"/><feColorMatrix in="SourceAlpha" values="0 0 0 0 0 0 0 0 0 0 0 0 0 0 0 0 0 0 127 0"/><feOffset dy="3"/><feGaussianBlur stdDeviation="2"/><feColorMatrix values="0 0 0 0 0.118854 0 0 0 0 0.679167 0 0 0 0 0.471503 0 0 0 0.65 0"/><feBlend in2="BackgroundImageFix" result="effect1_dropShadow"/><feBlend in="SourceGraphic" in2="effect1_dropShadow" result="shape"/></filter><filter id="filter1_d" x="2.516" y="10.059" width="11.609" height="17.023" filterUnits="userSpaceOnUse" color-interpolation-filters="sRGB"><feFlood flood-opacity="0" result="BackgroundImageFix"/><feColorMatrix in="SourceAlpha" values="0 0 0 0 0 0 0 0 0 0 0 0 0 0 0 0 0 0 127 0"/><feOffset dy="3"/><feGaussianBlur stdDeviation="2"/><feColorMatrix values="0 0 0 0 0.118854 0 0 0 0 0.679167 0 0 0 0 0.471503 0 0 0 0.65 0"/><feBlend in2="BackgroundImageFix" result="effect1_dropShadow"/><feBlend in="SourceGraphic" in2="effect1_dropShadow" result="shape"/></filter><linearGradient id="paint0_linear" x1="0" y1="0" x2="33.79" y2="13.4" gradientUnits="userSpaceOnUse"><stop stop-color="#30DB9E"/><stop offset="1" stop-color="#2BB886"/></linearGradient></defs></svg>